<svg xmlns="http://www.w3.org/2000/svg" width="1799.359" height="584.278" xmlns:v="https://vecta.io/nano"><path d="M0 479.438v103.907l73.78-.016-.047-17.422-52.758-.155v-86.314zm168.02.01l.058 103.88 20.97-.172.114-103.7zm121.28-.008l-.157 103.9h21.14l.076-44.47h42.9V521.4h-42.9v-24.665h49.407v-17.3zm168.66-.14l.2 104.13h78.08v-17.507h-57.4V536.7h51.607v-17H478.83v-23.206h55.78v-17.2zm297.06.148l.058 103.88 20.97-.172.114-103.7zm175.417 31.182h20.775s.53-17.732-12.174-25.936-29.5-6.75-29.5-6.75-21.172 1.323-27.4 9.4-8.6 14.953-7.543 23.3 5.425 14.953 16 21.57 26.995 7.146 32.817 10.057 10.32 5.425 8.733 12.968-10.454 12.306-17.07 12.44-26.6-3.97-24.48-20.114c0-.265-20.246 1.985-20.246 1.985s2.646 23.025 18.26 30.17 42.212 4.764 49.225.662 18.526-15.482 16.54-30.832-15.35-23.157-15.35-23.157a107.21 107.21 0 0 0-18.658-6.484c-9.66-2.25-21.57-5.558-23.554-7.675s-7.013-11.248 3.837-14.82 24.48-3.308 27.788 7.4c.267.393 1.987 5.818 1.987 5.818zm243.003-31.228V583.33h20.867v-45.6h41.225v45.6h21.07V479.504h-20.97v40.716h-41.225v-40.818zm184.52-.102l.2 104.13h78.08v-17.507h-57.4V536.7h51.607v-17h-51.607v-23.206h55.78v-17.2zm362 0l.2 104.13h78.08v-17.507h-57.4V536.7h51.607v-17h-51.607v-23.206h55.78v-17.2zM1556.5 582.856h-20.987V479.3l39.884.228c9.263 0 13.96-.077 13.96-.228 8.938.52 16.82 3.573 22.2 8.6a28.92 28.92 0 0 1 7.321 11.284c1.256 3.698 1.707 7.622 1.322 11.5a33 33 0 0 1-2.742 10.348 31.29 31.29 0 0 1-4.871 7.8 22.95 22.95 0 0 1-5.723 4.646c-1.966 1.138-4.043 2.07-6.2 2.78a32.33 32.33 0 0 1-7.914 1.7c-.035.001-.07-.001-.106-.007a57.81 57.81 0 0 1 9.767 7.726 63.92 63.92 0 0 1 6.737 7.773 52.72 52.72 0 0 1 5.158 8.4l13.417 20.993h-24.083l-.146-.208-22.4-32.3c-3.643-5.332-6.957-7.855-9.1-9.032a8.94 8.94 0 0 0-3.806-1.29h-11.7v42.835zm.172-86.356v27.006h27.213c1.216 0 7.485-.2 11.45-4.22a12.35 12.35 0 0 0 3.31-9.2c-.07-5.558-2.43-9.52-7.02-11.774a19.13 19.13 0 0 0-7.849-1.813h-27.1z" fill="#1c7350"/><path d="M0 3.257v382.1h132.724s176.2-12.586 182.59-189.46C319.245 18.534 140.76 2.45 140.76 2.45z" fill="#d22527"/><path d="M54.565 249.857v77.332s2.9.67 4.456-1.288c1.058-1.285 2.238-2.465 3.523-3.523 0 0 2.427 3.993 4.62 4.072s2.662-4.933 3.68-7.36 3.445-5.168 4.54-4.15 2.9-.157 3.6-.548 3.6-3.3 4.7 1.488.94 7.83 1.957-.313c.7-1.488 3.6-1.644 4.385-1.174s1.88 8.378 2.9 1.488c1.018 0 3.132.235 1.8 2.74s-5.4 10.492 1.566 1.88c2.584-1.88 4.15-3.523 5.716-4.228s.235-.548-.47-1.88.94-2.82.94-2.82 1.1-.783.86-3.3 3.367-4.855 3.367-4.855 1.253-2.192 1.1-3.6 2.584-1.174 3.523-1.723 3.993-4.776 4.228-6.577 1.723-8.378 3.68-3.054.783 4.15.783 4.15 1.723 3.367 2.74 0-2.662-4.15-.548-7.83a5.77 5.77 0 0 0 1.253-2.975l-5.638-.313s-1.33-.783 0-1.253a9 9 0 0 1 3.68 0s.783-3.2-.548-3.6-1.723 1.174-1.723 1.174-1.1 1.88-2.74-1.174.94-4.385.94-4.385.783.47 1.253-.783-.626-2.662 1.88-1.253 4.463-.392 3.2-1.957-8.378-4.228-10.18-5.95-6.577-3.2-8.22-3.837-2.662-2.27-3.367-2.584c-4.482-1.188-9.07-1.923-13.7-2.192l-17.46-1.018s-1.488-1.566 4.933-1.8 9.553 0 9.553 0 1.33.6-.4-1.033-30.38-.005-30.38-.005zm0-32.46v16.673h9.27a2.58 2.58 0 0 0 0-2.779c-.926-1.456-6.087-3.44-6.087-3.44s-1.985-1.2 1.2-1.456a33.58 33.58 0 0 1 7.94.794s3.176 0 0-2.514-2.9-2.52-1.06-2.12 8.866 2.514 9.527 2.117 4.234 1.06 4.234 1.06 2.647 1.2.926-1.06-2.117-2.9-.926-4.367 1.853-3.705.926-4.63-13.762-.662-14.688-.53-11.255 2.25-11.255 2.25zm0-7.628v2.573l1.9-.17a3.25 3.25 0 0 0-.907-2.088c-.8-.57-.993-.316-.993-.316zm0-14.945v13.112s10.12-5.56 10.722-6.116.14-2.548-3.475-2.78-5.328-2.085-4.448-3.382 10.98-14.64 14.224-16.587 8.664-7.228 10.934-7.46 4.818-.093 5.652-.556 3.938-3.938 4.587-3.753a2.22 2.22 0 0 1 1.066.788c-.474.97-1.173 1.8-2.04 2.456-1.622 1.344-16.68 10.656-16.957 10.888s-2.224 1.3-2.27 2.224a1.56 1.56 0 0 0 2.27 1.39c1.112-.695 13.482-9.22 14.363-9.776a41.18 41.18 0 0 1 3.984-2.039c.5-.185 1.3-.093 1.112.74s-5.143 5.05-5.513 5.467a453.16 453.16 0 0 0-4.587 5.606c-.5.65-4.587 3.845-4.818 4.355s-.74 1.436 0 1.53c1.714-.2 3.405-.548 5.05-1.066.88-.278 8.57-5.838 9.87-6.625s2.548-1.76 3.475-1.2.046 1.9-1.112 3.012-6.3 3.243-6.533 3.66-.834 1.3-.556 1.668 3.614-.973 3.892-1.25c1.436-.815 2.98-1.424 4.587-1.807.834 0 2.734-.093 2.78.556s-5.8 4.123-6.3 4.494-4.54 3.3-4.726 3.66-.232 1.9-1.02 2.5-8.9 6.533-9.405 7.506-.232 1.714 0 1.714 2.78-.788 3.15-1.3 5.513-5.8 6.672-6.672 8.293-3.614 8.57-3.3a1.47 1.47 0 0 1-.371 1.807c-.6.324-1.992 1.668-1.853 2.224s1.25-.046 1.853-.324 3.8-1.668 4.448-1.9 3.3-.65 3.15 0-6.162 3.938-6.533 4.216-6.44 4.957-6.58 5.652.324 2.92 1.575 2.92 5.328-2.085 5.652-2.317 2.965-2.78 3.382-3.845 5.05-3.8 5.606-3.984 2.734-.788 2.78 0a8.05 8.05 0 0 1-1.807 3.475l-9.96 7.784a2.29 2.29 0 0 0-1.066 1.344c-.093.278.834 1.25 1.853 1.066a58.42 58.42 0 0 0 7-2.873 58.84 58.84 0 0 1 9.359-2.965c1.76-.185 2.64.834 2.317 1.02s-2.178 2.78-3.475 2.92-5.8.834-6.3 1.483c-.592.556-.7 1.46-.232 2.13.556.6 3.475-.37 3.845-.417s2.826-.88 3.382-1.02 5.652-.5 5.93.185 1.158 1.992.232 3.336-7.1 4.3-7.7 4.633-5.282 3.2-6.44 3.336-1.436.88-.927 1.112a7.48 7.48 0 0 0 2.687 0c.6-.093 7.876-1.575 8.988-1.668s9.87-3.428 10.98-3.475 2.27-.788 2.13-.185-1.344 1.344-1.344 1.714-.37 3.66.278 3.614c1.178-.307 2.338-.68 3.475-1.112.65-.185 1.436-.973 1.53.834s1.807 4.726 2.5 4.772 1.992-.046 3.1 0a2.9 2.9 0 0 1 2.178 1.019c.232.37 2.5-.093 2.873.37s.278 1.483-.834 3.058-3.336 3.706-2.92 4.726-.463 1.53.417 1.25 4.17-2.178 5.143-1.946.788 0 0 1.53-1.622 3.475-1.483 4.262 1.483-.88 2.4-1.2 1.622-.37.927 1.2 0 1.853 0 1.853a6.6 6.6 0 0 1 1.9-.278c.324.14-.417 2.734-.417 3.568s.74.417 1.575-.185 4.54-3.614 4.957-3.1-1.3 5.143-1.622 6.255-.417 2.456 0 2.4 3.52-3.66 3.938-3.382-1.112 4.818-1.2 5.652-.74 1.483-.185 1.76 3.3.046 3.43.278a111.25 111.25 0 0 1-1.483 11.12c-.278.5-4.9 10.47-4.957 15.567s.5 6.58.5 6.58 6.116 9.22 5.838 11.444.65 9.313.973 9.6a9.14 9.14 0 0 0 4.911 0c1.2-.6 8.664-4.262 15.428-3.892s16.494-2.085 17.606-1.992 2.224-.927 2.92-1.3-.14-2.826 1.158-4.123 4.4-3.475 4.448-7.6 5-15.475 5-15.475c.28-1.73.436-3.48.463-5.235.046-2.92-1.3-12.926-.463-13.02s1.807-.834 2.734.788.695 1.575 1.344 1.714.973-2.224.973-2.224-1.02-2.965-1.992-3.568.232-2.78.232-2.78a8.91 8.91 0 0 1 2.27-.88c.37.093 1.2-1.25.74-2.78s-1.066-2.965 0-2.64 2.5 1.76 2.78 1.807 4.957-1.25 6.023-3.15 2.13-.74 2.13-.74c.7-.167 1.3-.598 1.668-1.2.463-.927.14-4.448.6-5.05s2.317-2.548 3.614-2.64 5.42-4.123 5.93-6.023 2.873-1.76 2.873-1.76a15.97 15.97 0 0 0 1.668-4.818c.14-1.946-1.4-7.32-1.158-7.274s.278-1.575 1.853.324 2.4 2.224 2.873 2.4 1.53-2.04.973-4.957-1.714-7.042-.973-8.247a6.36 6.36 0 0 0 .788-1.483s1.807-.417 1.9.232.834 1.4.973 1.25a2.56 2.56 0 0 0 .556-1.483c-.093-.463-4.17-5.282-3.845-6.255s.324-1.3 1.2-.788 3.707 4.077 4.216 4.355 2.27.74 2.873 0 1.02-2.04.232-2.224c-.816-.098-1.64-.098-2.456 0 0 0-1.622-.5-1.807-1.344s.278-2.04.6-1.946c.588.13 1.162.316 1.714.556.093.14 2.595.463 1.53-2.92s-.695-2.04-.788-3.012-.463-2.5.185-2.734 3.058 2.13 3.382 1.992 1.02-.37.65-1.575-6.116-8.154-6.116-8.154-1.158-1.483-.556-1.946 2.595.463 2.456.834 1.853 2.085 2.178 1.112-.556-3.8.973-3.3 2.92 1.853 3.243 1.344-2.456-6.023-3.058-6.9-3.243-2.64-3.336-3.428.695-1.25 1.2-.463 1.112 1.4 1.946 1.02a2.06 2.06 0 0 0 1.155-1.35 2.08 2.08 0 0 0-.32-1.75c-1.02-1.3-5.374-2.363-7.1-2.78s-1.344-2.317 0-2.4 7.6 1.668 8.57 1.066 3.3-2.085 1.344-4.448-1.2-3.15-3.475-3.243-5.42-1.714-8.664-1.25-5.8.74-6.07 1.25 2.852 2.383 3.126 2.995.17 1.2-.2 1.18-3.754-1.413-4.112-1.56-3.86-2.024-3.184-.738 3.976 4.133 4.382 4.66 2.662 2.636-.7 1.687-4.555-4.1-6-4.05a3.44 3.44 0 0 0-2.74 2.45c-.2.8 2.868 16.213 3.248 17.3s.485 15.563.485 15.563-1.6 20.78-7.355 30.045-6.8 9.683-6.8 9.683a1.8 1.8 0 0 1-2.27.371c-1.25-.788 1.02-10.24 1.02-10.24s1.622-3.753 1.066-4.68a3.5 3.5 0 0 0-3.845-1.436c-.936.352-1.47 1.34-1.25 2.317v2.4h-2.687a4.7 4.7 0 0 0 0 2.641c.463 1.02 1.112 2.317.65 3.243s-2.595 2.4-3.2 1.853-1.436-5.467-1.436-5.467-1.2-1.066-1.25-.695-1.9 8.664-1.9 8.85-.74 3.058-1.483.5c-.35-1.356-.93-2.64-1.714-3.8a9.45 9.45 0 0 0-2.641-.371c-.463.186-1.02 4.124-1.112 4.17s-1.668.74-2.363-.185-.695-3.615-.695-3.985-2.13.5-2.456.973-1.714.927-1.853 0 .74-3.2.834-3.845.695-6.95.65-7.18c-1.738 1.67-3.277 3.536-4.587 5.56-.37 1.02-3.243 5.56-3.43 5.838s-1.76.5-1.02-1.946 5.05-8.988 5.05-9.637.65-2.456 0-2.224-7.135 7.18-7.46 7.552-2.13 1.714-1.344-.278 2.78-3.43 2.595-3.52.556-1.436-1.25-1.53-3.475-1.344-6.162-.65-2.826 2.548-3.382 2.595-2.224.6-2.178-.417.14-1.575-1.158-1.344-1.807.788-1.25-.185 3.243-1.853 3.1-2.64-.5-1.344-1.344-1.344-13.714.14-15.382.65-3.892.88-3.058-.417 1.622-2.04 1.02-2.5-1.946-.37-2.456-.463-.88-.927 0-1.53a17.01 17.01 0 0 0 3.15-2.548c.093-.37.093-2.085-2.178-1.25s-1.992 2.965-2.826 2.5-1.807-1.4-1.066-1.807 1.575-1.9.5-1.992-3.846 1.76-5.2 1.3-3.8.65-2.734-.5 7.413-3.753 7.645-4.494-2.178-.417-4.726.232-3.938 1.807-4.355 1.112-.74-1.575 1.853-2.317c1.53-.373 3.03-.853 4.494-1.436.37-.232-6.8.093-7.228 0s-2.873.88-2.27-.232 4.448-2.317 5.235-2.548a5.61 5.61 0 0 0 2.5-1.946c.046-.417-2.5.417-4.3-.5s.093-2.317.185-2.363 3.52-1.483 3.706-1.9 1.344-1.714-3.2-2.5c-1.2-.463-2.363.232-3.012-.695s-1.066-1.575.834-1.853 3.012.695 3.938 0a8.28 8.28 0 0 0 2.27-3.8c.185-1.02-1.02-1.714-.834-2.4s1.25-1.02 1.853-1.02 1.668-.463 1.112-1.066a4.07 4.07 0 0 1-1.09-2.933c0-1.436.463-3.382 1.112-3.568s2.5-.88 1.158-2.27-.185-2.456-.74-3.2-3.475-2.363-3.382-3.243a1.37 1.37 0 0 1 .7-.94c.367-.197.783-.225 1.163-.08.788.232 1.3-1.622.695-2.548s-3.568-7.923-5.143-8.293-11.35-.695-12-.417-5.143 2.13-6.116 1.946-1.4-1.668-.6-1.946 2.965-.695 2.965-1.3c.113-.616-.03-1.252-.398-1.76a2.29 2.29 0 0 0-1.548-.927c-2.04-.324-5.235-1.158-6.533-1.436s-3.3-1.575-2.965-2.04 1.668-.6.65-1.344-11.258-2.085-11.907-3.243-1.483-2.595.788-2.826 10.84-.788 15.475.74a24.94 24.94 0 0 0 9.313 1.714c3.706.14 8.8-.278 10.934 1.066 2.734.5 8.57-2.826 9.36-3.2s3.52-2.224 2.92-2.595-3.428-.278-3.892-.232-1.483-.695-.463-1.02 4.448-.695 3.475-1.344-6.162-.74-6.857 0-3.3 1.483-3.058 3.2 1.53 2.456-.278 2.64-10.146-1.344-10.424-1.575-.88-2.27.834-2.92 4.123-2.687 6.44-2.734 2.13-1.02 1.53-1.25-9.96-1.483-13.714-.834-7.228 2.317-8.154 2.317-2.92-1.3-3.706-1.483-5.428-.64-6.2-.834-2.506-3.4-3.915-3.483c-1.94-.2-3.838-.664-5.638-1.4-1.88-.783-3.367-1.88-4.15-2.114s-23.255 3.6-24.195 5.324-15.817 17.148-15.973 18.635.626 3.445 1.566 3.6 1.566.7.783 1.8-5.872 7.987-5.872 8.456-1.1 1.566 0 1.644 2.9-3.523 3.523-3.3-.7 2.662-.313 3.3.47 1.88 1.88.94 7.2-7.282 7.752-7.2 10.4-4.62 11.66-3.837.164 2.393-1 2.8-8.065 3.384-8.456 4.323a6.98 6.98 0 0 1-1.41 2.192c-.313.235-1.88-1.33-2.427-.86s-9.083 8.22-9.553 9.553-1.488 2.192-1.644 3.3 1.4.7 2.114 0 1.174-1.574 1.88-.983.313.983 0 1.453-4.228 3.915-3.993 4.463-.4 4.383 0 4.462a12.03 12.03 0 0 0 4.463-2.363c.783-.925 6.186-6.287 6.734-5.838s-.86 1.937-1.566 3.112-6.03 7.7-6.42 8.7-.548 2.516 0 2.27.392-1.264 1.253-1.03 1.566.43.626 1.585-2.74 5.62-3.445 5.854a11.28 11.28 0 0 0-1.953 1.104z" fill="#fff"/><path d="M67.828 180.348c-.225-.305 8.63-7.43 9.852-7.736s6.3-4.072 6.82-4.072 6.413-3.664 8.957-4.377 6.922-1.832 7.634-2.34 1.527-1.832 0-2.24-9.975.916-11.706 1.425-17.7 9.365-20.56 13.945-4.173 4.072-4.072 4.784 3.076.6 3.076.6zm-3.296-9.133l6.023-3.975c.423-.482 2.6-3.734 3.192-4.4s3.915-3.433 4.156-3.734-1.265-1.325-4.156 0-6.144 5.782-6.806 6.686-3.433 2.77-3.975 3.975-.3 2.168 0 2.108a15.31 15.31 0 0 0 1.566-.66zm.482-24.092s10.24-5.662 10.6-6.144a20.26 20.26 0 0 1 4.638-3.192 19.3 19.3 0 0 0 4.457-3.493c.18-.3-1.144-1.144-3.795 0s-14.636 8.673-15.54 9.095-2.3.9-2.65 2.23S64 147.666 64 147.666zm27.794-19.2s4.123 2.78 4.726 2.734 14.13.232 14.13.232.556-.5.556-.834-2.085-.7-3.614-1.112-6.394-2.64-7.367-2.687-6.857-1.25-7.737.232-.695 1.435-.695 1.435z" fill="#d22527"/><path d="M249.368 154.1s13.7-.7 14.564-1.1 2.506 0 1.488-2.192-3.054-3.837-5.1-3.445-10.18 1.018-10.962 1.723-2.506 1.644-2.114 2.975a3.94 3.94 0 0 0 2.113 2.04zm10.727-12.36l9.7-.313c.702-.256 1.105-.994.94-1.723-.235-1.33-1.8-2.427-4.306-2.114s-6.577 2.35-7.125 2.427-2.506 1.174-1.723 1.4c.825.176 1.663.28 2.505.314zM173.34 196l5.48.626a13.27 13.27 0 0 0 3.445 2.036c2.114.783 2.427 1.488 5.324 1.723s12.84 1.4 14.485 1.644 2.662 1.33 2.975 1.253 1.723.078 1.33-.783-3.2-2.114-5.1-2.584a74.8 74.8 0 0 0-8.3-.94c-1.174-.078-7.047-1.253-9.24-2.35a17.5 17.5 0 0 0-6.107-1.33c-.94-.078-5.638-.4-5.638 0s1.332.705 1.332.705zm3.053-3.523s9.4 1.33 10.257 1.253a25.37 25.37 0 0 1 6.734 1.253c2.192.783 6.97 1.566 8.143 2.114a4.76 4.76 0 0 0 3.445 0 6.21 6.21 0 0 1 3.6 0c.626.392 2.506 5.56 2.74 6.655s2.506 2.036 3.367 1.33a26.59 26.59 0 0 0 3.758-3.367c.47-.783.94-5.168 2.036-6.03s2.82-3.445 2.82-5.246-1.566-3.6-1.488-5.872 1.723-6.5 2.74-8.456 4.072-8.456 5.246-9.4a3.78 3.78 0 0 1 4.15 0c.7.7 1.723 4.306 2.27 4.072s1.018-.626.86-2.27-1.957-8.7-3.132-10.727-9-10.65-9.4-12.058-.078-2.427-.392-2.74-2.35 0-2.35 0a5.32 5.32 0 0 1 0-1.644c.157-.626 1.4-.86.94-1.88s-1.253-1.018-1.4-1.566-.157-9.474 0-9.944 1.33-2.036 2.35.626.86 9.944.86 9.944l.783 3.523c.157.782 2.036.078 2.584-.7s5.1-8.065 6.03-9.4 6.655-12.84 7.125-13.076.86 1.018.392 2.35-3.367 6.03-3.758 6.734a54.59 54.59 0 0 0-2.819 4.855c-.078.548-.548 1.723.94 1.174s4.072-4.385 4.933-5.4 1.723-2.506 1.957-2.427-.47 3.2-.7 3.68-3.837 5.1-4.933 5.638-4.15 2.27-4.385 3.054-1.566 2.74-.94 2.82a29.87 29.87 0 0 0 3.523-.783c1.018-.157 2.662-1.33 3.132-1.1s.313.7.47 1.1 1.018.392 1.88.392 2.9-1.4 3.68-.392.235 3.054.94 3.837 1.88 2.036 2.975.548 1.957-4.855 3.054-5.48 3.68-1.8 5-2.427 2.74-1.33 1.1-1.566-4.072.86-4.385.313a1.87 1.87 0 0 1 .861-2.506c1.174-.4 5.716-3.523 6.655-3.445s2.27-1.33.7-1.88-3.6-.783-3.837-2.114.235-10.257-.4-10.884-1.644.392-2.662 0-2.35-1.175-2.192-1.958 3.132-2.192 3.054-3.132a2.75 2.75 0 0 0-1.331-2.192 3.01 3.01 0 0 0-2.866.6 21.25 21.25 0 0 1-1.714 1.807c-.37.37-1.02 2.178-2.04 1.575s1.066-4.3 1.066-4.3 2.4-2.5 2.4-3.1.417-2.178-1.436-1.4-2.178 2.317-2.78 2.27-1.2.65-1.2-.556 1.76-4.077 1.714-4.865a7.53 7.53 0 0 0-1.714-4.355c-1.53-2.04 1.483-4.355 1.483-4.355l3.568-.232a9.98 9.98 0 0 0 1.792-1.2 5.22 5.22 0 0 1 3.054-1.436c1.734-.093 4.884-.324 5.348-1.112a16.77 16.77 0 0 0 1.3-3.66c0-.37-1.25-.695-2.965-.232s-10.47 1.807-12.37 2.64-3.938 3.3-4.68 3.8-2.548-.324-2.92-.695a2.68 2.68 0 0 0-2.965.695c-.65.973-1.112 2.085-1.807 2.317s-.88.14-1.066-.417a50.49 50.49 0 0 1 0-6.486c.6-1.353 1.477-2.556 2.595-3.52 1.158-.788 1.575-2.548 1.76-3.012s3.614-4.355 7.042-5.56a7.2 7.2 0 0 0 4.309-4.679 4.01 4.01 0 0 0-1.761 0 93.79 93.79 0 0 0-11.073 7.876c-1.946 1.853-3.52 5.143-5.7 4.448-1.205-.3-2.027-1.404-1.946-2.64 0 0 1.112-2.27 1.946-2.27a11.46 11.46 0 0 0 3.2-.834 45.85 45.85 0 0 0 5.467-5.374c.324-.695.695-1.4.324-1.668s-2.13.324-2.363 0 1.3-1.483 1.3-1.483l5.1-3.012c.42-.325 2.13-1.9 2.04-2.178s-1.668.14-2.5.232-8.154.973-8.942 1.4-10.98 5.977-11.722 6.116-4.587.324-5.05.6-.37.834-.834.834-2.27.185-2.595-.324-1.4-7.274-.6-8.618-2.965 1.4-2.965 1.4-1.575 3.382-1.483 4.216.324 3.15 0 3.568-2.27-.046-2.317.5c.305 2.134.833 4.23 1.575 6.255a16.76 16.76 0 0 1 1.112 4.772c-.046.65.093 5.42-1.575 1.344a54.16 54.16 0 0 1-2.456-7.506s-.695-4.633-.973-5.374a9.42 9.42 0 0 1-1.066-5.977c.6-2.965 2.595-4.865 2.687-5.745-.052-1.473-.518-2.902-1.344-4.123-.927-1.436-1.9-18.162-3.3-22.378a33.52 33.52 0 0 0-4.262-8.108s-2.27-.6-2.548 1.3-.88 1.853-1.158 1.76a16.61 16.61 0 0 1-1.946-3.845c0-.37-.37-5-1.02-5.328s-1.807-.65-1.3 3.15 2.224 15.3 1.992 17.42-1.066 7.83.88 13.158 0 14.13 0 14.13a5.6 5.6 0 0 0 0 2.919c.463 1.25 8.2 19.783 9.915 22.656s1.76 13.4 1.668 13.62-1.622 1.992-2.317-.5-1.807-10.47-2.224-11.907-7.18-16.448-8.2-18.07-1.668-2.687-2.224-2.64-2.04.5-2.085-.695 0-6.764 0-6.764.927-1.2 2.085-.65 1.25.093 1.25-.5-1.53-6.162-2.178-7.042-1.575-5.7-1.4-7.923.695-5 .232-6.486-1.483-1.066-1.483-2.317a3.09 3.09 0 0 1 1.066-2.595c.695-.6 1.4-4.123.417-4.726s-1.76-.463-2.224.5-.6 1.575-1.4 1.946-.74 1.066-1.853-.463-2.826-8.942-3.243-9.683-3.2-7.367-3.846-7.274-.74.6-.324 2.363 4.123 12 4.9 19.227 2.64 13.4 2.5 13.9.5 2.4-1.02 1.853-2.363-2.04-3.012-3.058-1.4-2.04-1.992-1.066a5.11 5.11 0 0 0 0 3.8c.37.65 3.567 11.073 3.52 12.185s.74 4.726 0 4.216-3.243-4.633-3.243-5.56 0-5.606-.556-6.208-1.853-.74-3.2-1.9-5.56-6.3-5.977-7.6-4.262-5.977-5.42-6.116-.695 1.53-.556 1.992 4.124 10.147 4.726 11.5.88 2.27 1.483 1.946 1.02-1.112 1.575-.463 1.9 5.05 2.317 5.838 5.7 8.2 6.07 9.405 2.595 5.7 2.548 6.9.185 3.1-1.436 1.946-3.614-6.533-3.892-7.552-6.3-12.23-6.95-12.556-1.946-.232-2.363-1.158-4.68-7.6-4.957-8.57-8.2-18.116-9.035-19.088-13.2-13.3-16.216-14.4-10.934-5.8-10.934-5.8-2.595-.232-2.873.324-.556 1.992 0 2.178 3.707.463 4.123.834 12.648 8.8 13.946 9.6 9.544 9.266 9.544 9.87c-.116.783-.116 1.58 0 2.363.232.834 5.235 8.386 5.282 8.988s.14 2.224-2.13 0-16.448-17.1-17.328-17.513-3.66-.973-3.568.65 20.85 23.907 21.405 24.926 3.3 5.282 3.475 5.93 1.483 3.846-1.2 1.946-10.252-10.944-16.692-14.2-18.023-11.857-28.908-13.85-4.9 6.208-4.9 6.208 4.54 1.992 7.876 3.058 10.656 6.9 10.24 7.135-6.023-.788-6.44-1.112-10.517-3.707-13.4-3.2-5.1 2.4-4.726 4.818 9.544 6.208 9.87 6.533 2.4 1.158 2.363 1.483 1.483.973-2.363.88-17.513.093-20.57 1.25-2.456 2.78-2.456 2.78.046 1.112 3.753 1.344 13.065.65 14.13 1.25 4.494 1.807-.65 1.575-17.977.417-20.108 1.436-2.595 1.344-2.78 1.76-.185 3.243-.74 3.846-2.5 1.992-2.224 3.984a4.95 4.95 0 0 0 2.456 4.031 24.84 24.84 0 0 0 2.409 1.158c.446.213.73.664.73 1.16s-.284.945-.73 1.16C77.478 89.02 59.548 95.97 57.23 98.98s-1.946 2.363-1.946 3.382-.417 1.2 2.13 1.158 4.772.14 5.143-.37 1.53-2.78 3.475-2.826 3.846 2.04 3.1 3.938-5.745 5.143-6.857 5.652a6.17 6.17 0 0 0-2.734 3.012c-.093.74-.834 1.158.232 1.53s4.587 0 5.328-.74 3.8-4.355 4.772-4.772 8.988 0 8.988 0 1.436 1.4-1.575 1.714-9.266 1.9-9.5 1.946a33.28 33.28 0 0 0-3.382 3.058c-.695.74-4.355 1.853-7.18 2.363s-6.44 4.587-6.718 5.42 2.13 2.456 4.772 1.436 10.286-6.8 11.583-7.042 4.262.185 4.865 0 5.93-2.965 6.486-2.826.6.927-.278 1.4-8.57 4.448-10.564 6.347-1.622 2.734-1.668 3.012 1.9.185 2.734-.278 5.7-.834 5.838-.232 1.575 1.3 1.575 1.3l22.656-5.282s-.185-.6.74-.65a8.57 8.57 0 0 1 2.687 0c.463.232 5.606.973 6.8.65a12.27 12.27 0 0 1 4.448.278l14.27 2.178c.556 0 3.3.046 3.707-.417s12.88-.232 12.88-.232-11.35-3.2-13.668-3.382-2.92-2.965-2.92-2.965l-3.43-.6c-1.02-.183-.324-1.853.973-1.622s19.552 1.344 24.092 3.707 10.286 3.52 9.96 3.8-2.04.6-1.807 1.3.14.788.74.88 6.208.6 6.58.695 2.826.74 2.456 1.158-6.764.5-7.274.65-1.158.973-.695 1.25 6.023.324 7.18.417 6.394.6 9.127 2.456 6.672 3.475 7.228 3.336-.185-1.9-1.622-3.012-2.27-2.04-2.317-2.78.14-2.363-1.3-2.826-13.62-6.718-18.9-8.108-14.085-2.687-13.4-4.633a2.12 2.12 0 0 1 1.125-1.397c.563-.277 1.22-.3 1.794-.04.788.185 21.45 7.1 23.212 8.34s7.18 4.54 7.46 5 .834.37.834 0a11.4 11.4 0 0 0-3.707-4.262c-1.76-1.02-15.3-7.7-18.255-9.08s-9.266-7.228-9.544-7.32-1.9.417-1.853 1.3-.278 3.52-4.262 2.92-12-6.533-12-6.533-3.1-1.2-3.475-.37-6.672.695-7.32.37-12.37-5.467-12.648-5.8-.324-2.548 1.76-1.53 2.5-.232 1.622-.834-2.13-1.4-1.344-1.436a24.87 24.87 0 0 1 5.05 1.112c.37.232 6.533 4.355 7 4.3s10.934 1.53 13.065 2.317 6.95 3.15 7.18 3.15 2.595.463-.973-2.4-7.737-4.03-8.618-4.68-1.02-4.216-1.483-4.818-6.394-4.263-6.58-4.448-4.818-3.428-4.355-3.892 10.24 3.614 10.6 3.892c.783 1.04 1.22 2.3 1.252 3.604-.14 1.2 4.123 3.012 4.726 3.3s3.846 1.807 4.448 1.483.278-2.13-.973-2.92 0-1.3 0-1.3a1.95 1.95 0 0 1 1.714.278c.6.6 8.8 7.6 10.054 8.247s7.228 3.43 8.48 4.03 3.1 1.714 2.687 2.27-4.355-.88-5.235-1.2c-2.17-.64-4.412-.997-6.672-1.066-1.344.185 4.587 1.946 5.143 2.5s18.9 10.193 20.8 11.768 10.193 10.842 11.027 11.26 3.382 1.4 3.938 1.112-.232-1.3-1.066-2.317-8.386-10.564-8.9-11.35-.232-1.575 0-1.483c.8.204 1.5.62 2.085 1.2a77.98 77.98 0 0 0 6.811 6.162 4.32 4.32 0 0 1 1.529 1.946c.185.695 6.718 9.313 7 9.96s6.95 8.386 7.46 8.85 1.575 1.344 1.853.185-1.853-6.857-3.1-9.266l-4.4-8.618c-.138-.464-1.066-2.085-.556-2.317s1.853.185 1.992-.37-.973-2.548-1.992-3.568-4.123-7.876-4.587-9.452-.74-3.243-.417-3.1c1.737 1.37 3.322 2.923 4.726 4.633.74 1.2 6.764 12.74 6.9 13.065s2.965 4.17 3.243 2.178-.232-3.2.37-3.382 1.807-.788 2.04-.37.74 1.992 1.112 2.687 2.78 3.1 3.1 3.846 1.158 2.595 1.02 3.382-.14 2.04-1.02 1.02-1.575-2.224-2.178-1.992a1.52 1.52 0 0 0-.927 1.807c.14 1.02.324 6.672 0 7.135s-.788 1.622-1.112-1.575c-.295-2.725-1.113-5.368-2.4-7.784-.695-.973-2.178-3.568-2.734-3.2a2.72 2.72 0 0 0-.51 2.548c.324.463 2.456 2.595 2.595 4.077s1.02 6.9 1.02 6.486.324 6.3 0 6.857-1.622 1.02-1.622 1.668a13.29 13.29 0 0 0 .37 2.78c.232.88 2.04 3.012 3.3 3.15a3.84 3.84 0 0 1 2.5.88c.463.5 3.2 3.8 3.2 4.262s-3.058 3.753-3.2 4.957-2.687 4.818-2.734 5.8.093 2.595 0 2.873 1.02.093 1.575-1.158 2.78-6.3 3.66-6.857 3.707-.185 4.124-.65 2.77-3.243 3.633-3.568-1.038 3.243-1.038 3.243-5.05 13.668-6.023 14.78-3.984 5.374-4.355 5.884-2.085 2.187-.417-1.362 6.44-10.823 6.58-11.75.695-2.965.37-3.058-1.575 1.714-2.456 3.336-6.255 7.876-6.3 8.525-.232 2.65-.695 2.947-2.873.343-3.058.76-1.76 3.892-3.382 3.938-3.707.08-4.262 1.175a1.86 1.86 0 0 0-.067 1.615c.225.52.677.9 1.225 1.056 1.25.556 2.64 1.807 1.668 1.53s-2.92-.757-3.938-.9-2.965-.108-4.448-.34-6.672-1.76-7.784-1.76c-1.423-.005-2.84-.192-4.216-.556-1.158-.37-2.178-1.853-3.382-1.02s-2.175 1.575-2.175 1.575zm-7.987-183.69c1.174 1.174 2.036 2.74 1.723 3.2-.626.65-.965 1.525-.94 2.427 0 1.488 5.4 14.877 5.56 16.6s3.758 16.13 3.68 17.3-.86 2.35-2.27-.392-8.22-24.743-8.22-27.875a64.85 64.85 0 0 0-.7-7.752s-.7-2.584-1.1-2.584-.47-1.4 0-1.4a18.43 18.43 0 0 1 2.27.475z" fill="#fff"/><path d="M237.5 96.234l-3.753 17.42c-.232 1.298-1.158 4.216-1.4 0a31.2 31.2 0 0 1 1.066-10.378c.788-2.78 4.03-9.08 4.077-8.525a14.65 14.65 0 0 1 0 1.482zm-6.37-1.77c-.082 1.6-4.085 12.666-4.085 13.6s-1.453 2.66-1.234-2.742a32.03 32.03 0 0 1 1.864-10.144c.4-.9 1.26-4.222 2.056-4.085s1.48 1.78 1.4 3.37zm-11.156-17.83c0 1.07-.143 10.37-.962 12.367s-2.174 1.818-2.6.463.5-6.415.535-7.02.463-5.3.5-6.023.07-1.07.784-1.1 1.743.245 1.743 1.314zm-5.768 12.607l.9 28.068c-.365.844-.783 2.65-1.144 2.65s-1.506 1.626-1.807-.783-.3-15.178-.783-18.2-1.265-5.782-1.265-6.927c.186-2.027.508-4.04.964-6.023.542-2.9.18-6.324 1.084-5.12s2.05 6.325 2.05 6.325zM182.97 72.65s10.47 14.78 12 18.3 2.317 6.672 2.04 7a1.5 1.5 0 0 1-2.27 0c-.834-1.02-1.066-3.15-1.53-4.4s-7.18-12.278-8.015-13.714-3.753-6.162-3.892-7.18a7.73 7.73 0 0 1 0-1.946z" fill="#d22527"/><path d="M159.998 153.93s3.072 6.565 6.083 7.047 7.228-1.325 7.228-1.325a2.65 2.65 0 0 1 2.65 0c1.2.843.482 2.47-.542 3.493s-6.625 3.855-11.805.964-6.2-6.324-6.2-8.312 1.024-2.41 1.265-2.41c.457.138.9.32 1.32.542z" fill="#fff"/><path d="M197.534 28.965s2.506 11.7 2.427 16.857-.7 10.57-1.174 10.884-1.488 1.644-1.566-3.993 0-17.07-.313-17.852.626-5.896.626-5.896zm-65.6 20.65s11.2 7.875 12.418 9.5 5.9 7.023 6.515 8.245 2.138 3.664-1.832 0-9.874-10.077-15.37-13.64a49.04 49.04 0 0 1-6.82-4.886c-1.018-.814-.5-1.832 1.12-1.425 1.43.527 2.767 1.27 3.97 2.206zm45.306 34.98s9.4 10.934 10.983 14.1 2.117 7.146 1.72 7.013-11.512-12.57-12.7-13.365-1.588 0-5.558-3.705-6.75-9-7.807-9.13-1.588-3.573 0-3.044c2.642 1.288 5.1 2.937 7.278 4.9.53.794 1.323 3.14 2.78 3.225s3.305-.003 3.305-.003zm21.112 40.464a72.72 72.72 0 0 0-6.162-10.147c-2.27-2.873-11.953-14.965-14.224-17.1s-10.47-11.26-11.444-11.86-14.64-12.417-14.92-13.25-2.224 1.2-2.224 1.2c-1.713-.255-3.293-1.07-4.494-2.317-2.13-2.13-7.97-6.07-10.286-6.208s-16.03-7.737-16.9-8.247-10.008-6.255-11.212-5.93-1.4 2.13-.5 2.363 10.1 5.374 11.722 6.394 13.714 6.347 13.482 6.764.093 1.483 0 1.853 1.992 1.4 2.317 1.3 8.48 4.587 9.08 4.633 2.92.695 2.826 1.344-.74 3.15-2.595 2.27-5.56-4.355-6.07-4.216-1.158 1.4-.695 1.668 5.93 5.42 6.07 5.513-3.1-1.158-4.448-1.76-1.112-.093 0 1.066 7.18 8.618 7.737 9.08 3.475.556 3.614.185 2.224-2.456 3.1-2.363 2.826 1.2 3.012 2.826 7.367 6.347 7.645 6.486 2.78 1.9-2.78 0a25.4 25.4 0 0 1-8.386-4.4 5.31 5.31 0 0 0-3.845-.834c-.6.278-.788 2.456-.185 2.64s4.494 2.92 7.042 3.614 9.683 4.726 10.332 5.2 5.42 3.845 5.977 3.8 2.965 1.3.834-1.53-6.95-5.235-7.18-5.7.417-.788 2.78.417 7.923 6.347 8.57 6.533 2.687.788.788-1.066-11.768-10.24-12.926-11.26-4.3-3.8-3.8-4.355 2.363-.65 2.4-1.158-2.92-2.64-3.568-2.965-3.753-2.13-3.707-2.873.6-2.548 1.946-1.575 15.567 15.428 16.448 16.355 12.834 16.726 13.714 17.467 9.174 9.915 9.637 10.147c.488.125 1 .127 1.488.006z" fill="#d22527"/><path d="M153.616 138.717s7.43 2.138 9.874 1.018a11.5 11.5 0 0 0 3.97-3.155h-3.97s-1.323-1.934-1.018-2.24c-2.58.758-5.097 1.71-7.532 2.85a6.02 6.02 0 0 0-1.324 1.526z" fill="#fff"/><path d="M313.223 385.357L534.486 1.95 755.44 385.277z" fill="#3fbaeb"/><path d="M437.53 247.704h16.806s20.114 2.514 21.7 3.308a34.3 34.3 0 0 1 3.176 1.853h6.348l.926.794h7.013a17.03 17.03 0 0 0 2.911.794h11.777l18.393-6.75c1.455-.662 3.837-3.176-1.588-4.234s-1.853-3.044-1.853-3.044a11.31 11.31 0 0 0 4.5-1.06c2.117-1.06 5.7.53 6.22-2.25s-4.9-5.028-7.278-5.425c-1.837-.446-3.584-1.207-5.16-2.25h-4.23s.926-.53.926-2.382 2.78-8.47-4.5-15.35-13.762-5.293-13.762-5.293-4.5 1.2-6.352 1.06-3.176 0-3.573.794-.926 4.9-1.323 5.7-3.308 1.985-3.97 2.647-5.955 9.4-6.616 13.365-5.558 2.647-5.558 2.647-6.352 1.985-7.4 2.9-4.5 1.588-6.484 1.588-12.836 3.308-13.894 4.367c-.132-.132-7.146 0-7.146 0l-3.044 1.323h-6.087s-2.382 1.588-1.456 1.853l10.6 3.043zm155.484 23.026a39.96 39.96 0 0 1 5.69 1.588c1.323.662 7.543.53 7.543.53s1.853-2.25 3.044-2.117 6.484 0 6.484 0 3.308-1.456 1.06-2.78a19.01 19.01 0 0 0-5.293-2.382c-.662 0-12.836.53-14.953.926s-4.764 1.06-4.764 2.117a3.6 3.6 0 0 0 1.19 2.118zm126.234 114.3c-.078-.313-3.2-3.367-4.306-4.54s-4.933-6.812-6.03-7.517-10.1-10.884-14.094-11.98-1.33-.783-3.915-1.488-11.667-.626-12.763-.94-8.143-5.168-13.154-14.172-9.553-15.112-10.805-15.973-18.87-24.116-23.568-28.1-5.872-7.282-6.656-7.36-5.4 4.228-8.22 5.324-3.367 1.1-3.367 1.33 6.656 7.987 7.752 8.378 14.094 11.667 14.564 12.058 3.3 2.9 0 .94-13.3-9.318-14.564-10.414-10.022-9.63-11.667-10.962-11.667-10.022-13.233-11.354-5.638-6.734-6.5-7.987-4.463-7.36-6.342-9.083-3.915-4.463-4.62-5.168-1.174-1.174-2.27-.626-3.993 2.427-4.385 2.506-3.2-.078-3.3-.548-1.488-.626-2.114-.626-2.9.392-3.132 0-2.584-.235-1.88.626 5.716 9.4 6.107 9.7c1.336 1.814 2.5 3.754 3.445 5.794.157.783-.4 2.584-2.427-.783s-7.36-11.823-9.318-12.763-4.15-2.036-4.62-3.3-1.488-4.776-3.054-5.4-7.673-.078-9 .626a7.02 7.02 0 0 1-2.506 1.1c-.548 0-2.427-.4-2.975-.4s-1.488-1.1-2.114-.7c-.972.806-2.02 1.514-3.132 2.114-1.4.626-13 6.97-16.835 10.57s-20.44 23.323-23.492 27.236-21.532 23.1-23.1 24.038-3.445 4.776-4.307 5.716-6.186 5.638-7.282 6.5-22.707 12.293-23.96 12.45a11 11 0 0 0-5.324 2.584c-1.723 1.566-5.168 3.132-6.812 4.072s-7.752 3.132-14.72 3.523-11.667 1.1-15.034 2.584-3.993.94-4.463.4-6.342-6.734-7.047-6.9-2.9-1.018-4.54.4-25.3 22.864-26.152 23.412-6.734 4.933-7.047 5.4 378.268-.3 378.268-.3z" fill="#fff"/><path d="M644.622 384.857s-8.085-7.225-8.43-8.773-3.268-2.752-3.612-3.44-6.7-10.15-7.053-11a55.6 55.6 0 0 0-5.161-11.01c-3.1-4.817-6.193-11.182-8.257-13.418s-8.773-5.677-10.494-8.6-12.042-14.966-11.7-15.654-13.6-18.75-13.762-19.6 2.16 5.87 2.44 6.147 8.7 13.482 8.942 13.853a20.41 20.41 0 0 1 1.53 3.984c0 .6 6.347 11.676 6.625 11.954s11.675 10.888 12.046 11.536 9.266 13.62 9.6 14.733 10.286 19.7 11.63 20.757 7.552 8.258 7.83 8.553 7.837-.001 7.837-.001zm-220.3.347l2.62-1.992c.14-.185.232-1.112.463-1.622s2.085-1.714 2.224-1.9a32.74 32.74 0 0 1 3.29-2.595c.834-.5 4.494-3.66 4.726-3.8S441 371.72 441 371.72c.523-.792 1.095-1.55 1.714-2.27.185-.046 2.13.278 2.13.278l2.456-.74 8.34-5.374c1.205-1.1 10.656-8.154 12.37-11.35s6.625-8.525 6.625-8.525.973-2.224 1.2-2.5 2.363-2.78 2.595-3.243 4.17-6.718 5.282-7.274 2.178-2.92 2.64-3.43a13.91 13.91 0 0 1 2.131-1.483c.278-.185 1.3-1.2 1.3-1.2l.278-1.714c.5-.344.975-.747 1.4-1.2.324-.463 5.235-7.32 5.745-7.552a8.24 8.24 0 0 0 2.409-3.058c.046-.65.88-1.158 1.25-1.344s7.97-10.842 7.97-10.842l1.53-2.595c.402-1.1.914-2.155 1.53-3.15.5-.5 5.838-8.85 5.838-8.85-.047-.354-.047-.712 0-1.066.093-.14-7.042 9.313-7.784 10.147s-7.274 9.915-8.015 10.425-7.97 6.3-9.313 9.174a12.82 12.82 0 0 1-4.123 4.679 16.36 16.36 0 0 0-1.946 3.243c-.14.788-6.95 8.525-7.228 8.988s-4.3 8.247-4.68 8.525-4.03 4.216-4.3 4.494c-1.667 1.416-3.23 2.95-4.68 4.587a28.02 28.02 0 0 1-2.78 3.753 41.76 41.76 0 0 0-5.977 5.05c-2.78 2.873-10.934 7.367-12.046 7.32s-4.03.278-4.03.278-2.826 2.363-3.15 2.78-5.42 3.614-7.042 5.42-11.212 10.147-11.676 10.47-4.4.324-4.4.324l-2.5 2.317z" fill="#3fbaeb"/><path d="M1083.684 1.84l-221.12 383.352L641.578 1.84z" fill="#1c7d3d"/><path d="M865.028 296.4s3.36-2.748 2.545-5.5a20.58 20.58 0 0 0-2.952-6.209c-.6-.6-1.425-7.227-.6-8.04s.713-6.82 0-7.125-3.257-4.58-2.952-5.8 1.425-3.766 1.425-4.784-.1-7.634-1.832-9.568-7.94-9.365-7.94-10.688-3.766-6.413-6.3-7.94-5.5-2.952-7.634-2.138-2.036 4.275-2.036 4.275 1.425 3.766 2.545 4.886 1.425 6.2 1.425 6.2-.2 6.3 0 8.652 4.173 10.892 4.58 11.706c1.064 1.704 2.406 3.22 3.97 4.48 1.12.6 2.85-.5 3.46 1.73l3.054 11.808c.5 1.324 6.3 10.18 6.718 10.892s2.544 3.156 2.544 3.156zm4.792-10.107s1.88 2.036 3.132.392 1.644-5 1.644-5l-4.776 1.8s-1.018.548-.86 1.488a1.93 1.93 0 0 0 .861 1.331zm.627-8.77s2.9.86 4.776 0a12.18 12.18 0 0 0 2.975-1.88s-.7-1.253-2.975-1.253-3.993.235-4.776 1.253c-.46.542-.46 1.337 0 1.88zm-.86-9.63s3.524 2.975 6.264 1.4 2.74-1.957 2.74-1.957l-2.74-3.132s-4.776-1.488-6.264-.548 0 4.228 0 4.228zm-.08-13.468v3.915h4.15a5.6 5.6 0 0 0-1.018-1.644 21.79 21.79 0 0 0-3.132-2.271zm19.575-2.27v4.933a3.36 3.36 0 0 0 1.174-1.174l2.975-4.7s1.1-1.1.548-1.174-4.697 2.115-4.697 2.115zm-32.808-12.137s3.993 3.132 5.4.783 1.33-2.27 1.018-3.445-2.35-1.1-3.445-.626-2.973 3.288-2.973 3.288zm28.123 7.223l4.4-5.3 2.6 4.4a2.54 2.54 0 0 0 3.132 0c1.2-1.084 5.06-5.782 5.42-6.987s1.325-10.9-.964-12.9-3.192-2.23-4.457-2.23h-4.28a72.87 72.87 0 0 0-3.313-9.456c-1.867-4.1-2.53-4.276-2.53-4.276l-1.686 16.8 3.734 2.47v9.096s-2.65 3.554-3.192 4.1 1.145 4.272 1.145 4.272zm10.48-29.755s8.2 7.83 8.553 7.83 2.35.6 3.252 0a10.61 10.61 0 0 0 2.65-3.373c-.06-.3-4.818-3.493-8.553-4.457a23.66 23.66 0 0 0-5.9-.9zm4.888-5.875h0l10.842 6.208c.324 0 1.946.417 2.5-.788s7.413-13.53 7.552-13.992a3.2 3.2 0 0 0 0-1.622c-.14-.37-19.135-10.7-20.9-11.907s-13.4-10.147-13.4-10.147-5.05 3.43-5.05 3.568 18.023 21.776 18.023 21.776v6.9m-15.25-19.23l4.3 5.85-1.032 2.236a47.44 47.44 0 0 1-3.268-3.785c-.516-.86 0-4.3 0-4.3zm-31.177 41.048l6.616-3.308-5.425-1.323zm-3.573-7.84l5.426-2.216s-2.25-5.955-3.308-6.88a3.7 3.7 0 0 0-3.573-.926c-1.2.4-1.82 2.327-1.607 3.3s3.062 6.734 3.062 6.734zm-9.955-12.14l.713 2.952-2.036-.6v-1.63zm-10.755 17.665c.843.23 2.168-2.18 2.168-3.264s-2.168-4.035-2.168-4.035v-9.637s-4.517-2.048-4.818-3.433.843-4.94.843-4.94l-13.853-2.9s3.614 8.794 6.144 13.3 9.938 13.974 9.938 13.974a6.25 6.25 0 0 0 1.746.914zM815.914 190v5.022l3.26 3.788s2.555-2.82 1.586-4.846-4.846-3.964-4.846-3.964zm-12.07-3.343s-.44 3.876 0 4.934 4.14 3.26 4.14 3.26 1.233-3.436 0-4.67-4.14-3.525-4.14-3.525zm6.43-7.847s-2.82.53-3 1.5-.7 2.907 0 3.26 4.67 4.053 5.462 3.524 1.938-3.612 1.85-4.758-4.312-3.526-4.312-3.526zm-11.277-9.253s-2.114 1.674-2.114 2.555a15.61 15.61 0 0 0 .617 3.965c.264.352 1.5 1.586 1.5 1.586l5.1-4.14zm5.64-8.357v10.75s.617 2.2 1.674 2.555 3.7-1.762 3.7-2.555.793-10.132.793-10.132-1.674-4.493-2.026-4.405-4.317 1.4-4.14 2.026a5.48 5.48 0 0 1 0 1.762zm63.4 71.1s2.372-6.235 5.354-7.32c.542-7.862.542-12.47.542-12.47v-7.184s3.253-7.455 1.762-11.115c-2.1.068-5.422 3.117-5.422 3.117s-3.118 1.9-4.54 1.423-6.845-6.845-6.845-6.845-1.152-3.117.542-4.744 5.354-5.15 5.557-5.828 1.83-6.913-2.44-8.065-7.862 2.643-7.862 2.643-2.982 4-4.744-2.1-17.688-15.384-20.06-18.163-2.237-5.5-4.473-5.5-3.118 2.033-5.828-.678-6.98-11.047-7.794-10.03-.95 1.83-.745 4.473 7.318 34.835 7.318 34.835a1.79 1.79 0 0 1-.813 1.9c-1.152.95-1.965.95-1.22 1.965s8 4 9.895 6.98 2.643 2.846 3.66 5.9 5.625-.474 5.557-1.288a8.6 8.6 0 0 0-3.456-4.337c-1.56-.745-4.744-3.524-5.083-5.286a8.78 8.78 0 0 1 0-3.253h7.32l4.473 12.877-2.17 3.863c-.475.813-1.5.474-.745 2.508s4.54 9.76 5.625 10.9 3.863 1.56 4.066.6 1.627-1.694.88-3.32-4.54-6.845-3.4-7.455 3.32-2.236 4.134-1.9 9.827 5.693 11.318 9.08 9.626 23.785 9.626 23.785zm75.105-109.2s-8.04 13.847-11.167 18.463-6.55 8.636-11.465 8.785c-1.042-1.5.15-13.252 1.5-15.634l12.8-23.08c2.675-4.914 3.424-14.9 2.382-22.78s0-7 0-7 7.445 2.68 9.23 12.954 1.638 19.505 0 22.78a42.09 42.09 0 0 1-3.27 5.511zm-23.028-42.143h8.586s4.913 7.742 4.17 16.825-4.02 13.7-5.658 14.443-7.742-9.976-7.742-9.976l-9.976 1.936s0-3.722-7-5.2c-4.17-.897-8.485-.897-12.656 0 0 0 2.382 3.127 5.807 3.276s9.53 6.1 9.53 6.1a5.42 5.42 0 0 0 4.318 1.191c2.53-.447 4.616-1.638 6.1-1.2s4.418 2.53 4.517 3.87 0 9.083 0 9.083-7.2-2.68-8.1-3.722-4.318 0-4.765 0-4.467-3.127-6.7-3.425-29.78 5.36-29.78 5.36l1.5 2.53 16.825 1.34s7-2.085 8.934-2.085 6.254-.6 9.23 2.085a57.68 57.68 0 0 1 4.771 4.769l6.7-1.34.745 2.68s-1.638 1.787-2.68 6.7 0 11.614 0 11.614v8.934h-14.295l-12.656-2.53c-4.318-.744-27.992-3.573-32.608-5.062s-24.568-8.934-24.568-8.934l-8.784 1.04-4.318-7.742 11.465-21.292 6.85-.893s3.87-.6 4.318-2.978-8.04-17.123-8.04-17.123l-1.5-20.4s3.722-6.4 7.147-11.763 17.42-19.952 17.42-19.952l15.038-.893 2.68 2.085-.744 2.83s-3.87.3-6.254 4.914-4.02 12.358-4.02 12.358-4.318 4.318-5.36 4.616-2.382 4.765-2.382 4.765h11.763l9.827 2.978 9.38-.744 2.68 3.573s5.36-1.787 6.85-4.765 6.4-14.9 6.4-14.9 1.2-5.956-8.04-8.934c-11.018.447-12.2 0-12.2 0a52.25 52.25 0 0 1 4.318-3.276c.893-.447 6.85-.447 8.487-.6s6.1-1.787 11.614-1.5 17.272 2.53 23.376 8.487a12.23 12.23 0 0 1 1.042 7c-.447 1.638-1.042 1.936-1.042 1.936-2.422-.856-4.913-1.504-7.445-1.936-2.233-.15-11.763 1.042-11.912 13.7s6.55 13.4 6.55 13.4z" fill="#fff"/><path d="M886.56 93.757c-.893.3-16.825 12.954-16.825 12.954l-1.042 2.53 4.318.6a25.93 25.93 0 0 0 5.956-4.914 71.39 71.39 0 0 1 7.594-6.849 2.53 2.53 0 0 0 .6-2.233 3.62 3.62 0 0 0-.601-2.089z" fill="#1c7d3d"/><path d="M870.75 65.436s5.354-5.15 9.15-5.015c1.495.01 2.988.102 4.473.27 0 0-2.78 3.39-5.083 3.66l-8.54 1.084z" fill="#fff"/><path d="M895.736 133.88s4.934 3.7 6.52 3.7 7.4-.44 7.4-.44-5.727-4.846-7.93-5.1-5.99 1.85-5.99 1.85z" fill="#1c7d3d"/><g fill="#fff"><path d="M821.588 51.22s2.863 6.3 5.727 6.872c2.405-3.55 4.467-8.132 4.7-10.537s-8.132 1.718-8.934 2.75-1.493.916-1.493.916z"/><path d="M784.136 62.927s8.476-6.21 16.378-5.293 16.15 7.9 18.1 11.1 7.1 14.546 4.467 34.59-19.585 35.39-26.228 36.078a27.62 27.62 0 0 1-11.682-1.26c-1.903-1.503-4.03-2.7-6.3-3.55-4.238-1.718-13.515-16.378-13.63-26.572s1.374-23.938 8.934-31.955 3.894-13.147 3.894-13.147-7.33-6.667-8.6-8.958-2.176-3.55 0-8.476 2.863-4.7.916-11.8 1.718-14.088 1.718-14.088S786.66 9.87 788.033 7.12a53.49 53.49 0 0 1 3.78-6.07h6.185s.8.687-3.207 6.07-15.232 17.643-16.725 20.277-2.405 6.987-1.374 8.934 3.092 1.374 4.01 0 3.207-5.612 5.727-7.9 12.37-7.56 15-20.043 1.718-7.33 1.718-7.33h61.963l1.26 7.9c.23 1.142 2.52 2.52 3.436-.573l2.29-7.33h11l-8.132 8.934h7.56l10.536-8.932h61.4s-.687 7.445 4.8 12.026l-1.833 11.912-13.057-3.78s-1.374 4.925 0 6.3 6.3 4.01 6.3 4.01.344 2.978-.8 4.8-3.894 6.758-7.216 4.58-7.788-9.735-8.476-14.66c-2.786-.622-5.538-1.386-8.246-2.29 0 0-3.32 4.352-7.1 3.092s-9.85-3.894-12.255-3.78a25.02 25.02 0 0 0-4.581.687l2.405 3.55s-4.8 5.154-17.867 4.7c-1.145-2.634-3.092-5.956-5.04-7.216s-5.04-1.833-7.33 1.26-5.5 4.238-6.07 4.123-5.383-3.436-6.758-3.32-4.123 2.176-4.7 4.467c-1.947 1.26-3.55.8-4.467-1.145s-1.833-4.123-1.833-4.123l-9.048 11.1s-1.947 2.863-5.5.458c-1.49-3.092-2.405-5.612-2.405-5.612s-6.528 10.766-14.775 11.682a6.55 6.55 0 0 1-4.009 0s3.78-11 12.828-14.546 12.484-3.092 12.484-3.092-.115-4.238-6.528-5.612-6.643-.573-6.643-.573-14.775 11.1-15 12.14 10.308-4.8 10.308-4.8-2.863 7.1-6.643 9.964-6.643 7.216-8.246 9.506-8.6 6.758-13.4 7.216-8.934-.687-9.62 2.863a14.1 14.1 0 0 0-.002 5.973z"/></g><path d="M913.77 17.548s4.535 3.7 5.474 2.815.73-3.128.73-3.128c-1.385-.875-2.874-1.576-4.43-2.085-1.356-.2-1.773 2.398-1.773 2.398zm3.1-5.578c.955-.938 2.05-2.346 2.05-2.815s-1.147-1.408-1.616-1.3c-.906.58-1.643 1.4-2.137 2.346 0 .413 1.704 1.77 1.704 1.77zm-38.82 4.118s3.9 4.327 7.35 2.2 3.7-2.867 3.7-2.867-2.763-3.65-6.152-2.66a9.12 9.12 0 0 0-4.9 3.336zm-37.6-2.658c1.564-.2 13.4-3.4 14.128-3.806a2.45 2.45 0 0 0 .313-4.014c-1.877-1.772-6.673-2.4-9.853-1.72s-6.986 3.754-7.35 3.9-3.7-4.223-4.223-4.17-1.564 3.493-1.877 3.858-3.65 1.043-5.1.313-3.4-2.294-4.483-2.2-4.744.834-6.62 3.7-3.806 4.38-5.526 4.43-4.8-.2-4.848.52 2.294 6.412 2.7 6.57 5.422-2.137 8.654-2.867 7.142-1.46 9.02-2.92 3.806-4.38 6.2-4.327 5.9 2.5 6.88 2.7a5.45 5.45 0 0 0 1.985.001zm-40.9 53.513s8.082 5.553 9.07 5.553 2.53-.648 1.635-2.067-3.33-5.5-5.645-6.54-5.614-.956-5.614.308a9.34 9.34 0 0 0 .555 2.746zm5.207-21.348s2.224-5.787 4.518-7.663a3.37 3.37 0 0 0 1.147-4.118s-2.4-1.72-3.44-1.3a8.52 8.52 0 0 0-4.744 4.64c-1.46 3.18-1 7.872-1 7.872.67.325 1.367.586 2.085.782a2.25 2.25 0 0 0 1.425-.213zM779.1 47.002c.834-.417 8.028-3.9 9.28-5.422s1.72-4.014 3.284-4.9 1.93-1.72 4.014-1.772 4.17-.678 4.43-1.46a30.04 30.04 0 0 1 2.033-3.441s-7.455.1-9.175.782-6.2 4.848-7.142 5.9-3.962 2.867-5.057 4.275-4.014 4.43-3.6 4.848a12.4 12.4 0 0 0 1.932 1.199z" fill="#1c7d3d"/><path d="M1193.508 2.064l-220.98 383.16 442.08.04z" fill="#fec35c"/><path d="M1221.703 123.1c0-.174-3.25-1.973-5.86-.7s-1.973 1.973-1.973 1.973l.754 4.64a122.72 122.72 0 0 1 1.218 13.053c0 3.77.406 28.485-1.16 28.775s-3.307-8.818-3.307-8.818-4.12-1.334-4.235-.406c-.553 3.205-1.57 6.312-3.017 9.224-2.09 4.177-5.047 7.716-5.8 7.658-1.67-.55-2.995-1.83-3.6-3.48-.464-1.856-.058-2.38-1.16-3.19s-4.93-4.815-5.86-4.12a4.36 4.36 0 0 0-2.031 2.553c-.174 1.1.3 9.456-2.843 11.545l-5.337 3.54-15.838-7.368a4.64 4.64 0 0 0-.638 3.249c.232 2.147 1.508 10.907 1.508 10.907s-13.982-2.553-16.94-3.54 0 5.685 0 5.685 2.553 8.586.928 11.08-2.32 2.843-4.06 2.785-17.52.406-17.52.406l8.644 15.5-23.148 2.437s8.238 11.66 8.876 13.4 3.017 6.788 3.017 6.788l-18.39 2.03s13.517 10.037 13.633 11.023-1.334 4.41-3.945 4.235-10.907.812-10.907.812 4.815 5.975 6.9 6.556 2.437 4.41 2.437 4.41-1.74 2.67-4.583 2.61-12.067 0-12.067 0 10.152 9.514 10.443 10.617 1.044 4.525-1.45 5.627-18.74 1.45-18.74 1.45 1.624 5.86 4.235 6.614 2.495-.116 4.7 1.1 6.44 4.235 6.324 5.8-1.566 4.7-2.67 4.815-8.76.7-8.76 1.276-.812 3.365 2.2 4.583 10.21 4.7 9.92 6.44-2.03 7.948-6.324 9.166a55.18 55.18 0 0 0-9.166 3.829c0 0 .406 2.32 1.16 2.61a33.47 33.47 0 0 0 5.743 1.856c1.392.116 10.733.232 11.023 1.508s1.914 2.727-.58 5.4-9.456 9.34-9.05 9.514 17.636 2.146 17.636 2.146 2.6.638 2.437 3.133-4.873 11.37-4.873 11.37a28.82 28.82 0 0 1-3.249 3.771c-1.16.928-.406 1.682.58 1.8s16.882.522 16.882.522l-.3 3.423h149.75s-.272-1.887.486-2.2 4.507 2.2 4.507 2.2h10.978s-.4-7.02-3.258-10.41 1.92-4.284 2.588-4.24 10.086 0 10.086 0a35.36 35.36 0 0 0 0-4.418c-.536-1.63-1.177-3.226-1.92-4.775a19.04 19.04 0 0 1 4.6 0c1.2.357 9.282 3.08 9.282 3.08s1.294-3.7.446-5.534-3.258-8.97-2.4-11.157 3.526-2.454 4.284-2.454a29.36 29.36 0 0 0 5.4-.625c.536-.312-1.74-3.48-3.883-5.534s-2.5-2.187-2.142-3 5.757-1.92 6.74-2.142 5.132-1.25 4.864-1.83-5.578-10.7-7.274-12.05-1.16-2.365-1.026-2.633 12.852-8.122 12.852-8.122-2.32-2.945-4.552-3.838-9.64-3.347-9.64-4.06 13.477-12.406 13.477-12.406c-.177-1.267-1.06-2.323-2.276-2.722-2.1-.714-16.735-2.588-17-3.124s-2.812-.49 1.25-4.775 8.79-8.3 8.79-8.3 1.116-2.23-3.258-2.454-11.826-.134-12.228-.893-.49-2.4.446-3.035 6.872-4.507 8.434-7.587l2.142-4.24-17.494-1.07 12.138-12.54s2.187-1.874-1.25-2.142l-12.763-.848c-.312-.18-.714-1.83.4-3.57a26.89 26.89 0 0 1 5.8-5.534c1.34-.848 1.607-3.392 1.607-3.392l-21.42-1.16s-.982-.714 0-3.168 8.97-14.236 8.97-14.236.58-2.053 0-2.4-1.83-.625-6.56-.4-12 .625-12.317.4-1.65-.446-.536-2.4 8.077-8.836 7.943-9.46 3.347-1.74-9.06-1.116-14.727-1.383-14.727-1.383-2.633-1.473-2.053-6.962l1.2-12.228s-11.96 5.935-14.19 9.015-4.195-2.4-4.195-2.4v-12.177s-7.988 5.49-8.7 7.363-1.83.625-.937-3.124 1.026-10.666 2.856-15.664 1.517-12.45.892-14.905-7.97-14.812-7.97-14.812z" fill="#fff"/><path d="M1257.385 385.734s17.346-11.6 26.048-21.93 18.043-28.543 20.015-34.577.638-26.223.638-26.223-3.307-18.16-9.4-32.2-17.927-40.9-23.844-48.5-7.426-13-10.095-16.128-6.207-8.644-19.2-15.374-29.82-6.788-40.784-4.93-25.875 6.788-33.823 16.012-9.166 6.44-17.81 20.42-17.694 30.284-20.653 40.668-14.9 36.085-16.012 50.125-.232 31.618 6.44 43.337 31.56 29.994 31.56 29.994z" fill="#fec35c"/><path d="M1228.36 386.248c.382-.637 15.422-6.118 17.334-9.432s-.765-9.56-6.628-14.148-2.677-5.863-17.462-12.746-15.8-10.452-17.334-10.2-9.56 46.522-9.56 46.522zm-10.833-46.535c.765.268 28.168 16.582 31.992 18.112s7.52 4.206 12.363 2.677 12.236-7.9 15.04-10.452 8.412-11.726 10.834-15.04a28.15 28.15 0 0 0 4.971-15.04c0-5.608 1.912-16.187.637-21.413s-6.373-15.8-8.412-16.952-4.08-1.912-8.922.5-21.286 11.216-27.658 12.108-37.855 5.863-38.747 6.628-4.206 13.766-4.6 17.207-1.657 12.873.892 14.275 11.6 7.38 11.6 7.38zm16.825-52c3.57-.382 18.1-6 31.355-7.52s14.913-9.177 14.913-9.177 1.147-5.863 0-9.3-6-10.58-7.775-15.55-5.863-15.422-8.412-16.187-5.736 1.53-7.265 2.677-14.02 8.412-18.48 9.687-21.03 8.795-22.942 11.344-4.716 5.736-5.48 15.168-1.785 17.717-1.275 18.864 2.932 4.97 8.795 4.08a169.3 169.3 0 0 0 16.568-4.085zm-8.792-43.973a141.08 141.08 0 0 1 16.442-8.157c7.265-2.8 10.452-5.226 11.47-7s3.06-4.206 2.677-8.54-1.53-10.324-5.736-15.295-13.893-8.157-19.884-8.795-8.412-1.53-9.432 1.02a25.91 25.91 0 0 0-1.784 10.324 89.64 89.64 0 0 1-1.657 16.442 126.19 126.19 0 0 0-2.039 15.8c0 2.294-.765 6.628 0 7.52s2.294 1.784 3.7.765 6.242-4.074 6.242-4.074zm-19.63-35.693c0-9.432.765-9.3-3.314-11.1s-6.245-.892-10.324 0-10.324 2.55-10.96 6.5.765 8.667 2.422 10.324 9.56 9.05 11.854 9.05 4.716 2.167 7-1.912 3.313-12.873 3.313-12.873zm-33.778 6.5s21.668 13.893 24.1 16.442 4.716 3.314 4.206 11.1-1.657 25.874-2.294 26.894-1.657 5.1-10.96 1.912-33.65-6.118-37.345-10.2-6.373-3.7-5.226-13.256 11.98-17.717 14.02-20.52 6.373-12.108 8.54-13.256 4.97.896 4.97.896zm-31.227 52.008s5.1-3.7 12.5 0 13.765 9.56 31.355 9.05c8.795-.127 12.236.892 12.236.892s1.4 1.275 0 6.118-2.8 11.6-2.932 15.168.637 7.138-1.657 10.58-8.54 4.97-15.168 5.226-16.314.5-23.07 1.4-21.413 2.932-24.982-4.588-1.53-9.56 0-14.53 3.186-9.05 3.95-14.913 3.7-11.854 6.118-13.256 1.658-1.146 1.658-1.146zm-8.03 53.277s15.8-.382 25.492-1.53 20.14-1.784 25.62-.765c5.353.637 6.628.765 7 3.314.7 3.608.965 7.3.765 10.96-.255 5.863-1.275 10.324-1.784 15.932s-2.167 16.06-2.677 20.776-5.608 17.334-7.775 18.1-5.608 2.677-16.442-3.824-24.345-16.315-27.786-21.923-6.373-9.687-6.755-15.168-2.422-19.12-3.186-21.54 7.52-4.334 7.52-4.334z" fill="#fff"/><circle cx="1606.359" cy="195.157" r="193" fill="#e20c78"/><path d="M1635.4 276.646s-4.523-8.185-5.385-11.416-6.893-4.093-7.97-3.877-4.954 4.954-7.108 5.385-6.462-.215-6.462 1.077c.06 6.625.5 13.24 1.292 19.817 1.077 6.893 9.047 24.77 20.248 32.74s31.664 17.017 39.85 17.232 15.94.215 21.1-3.662 26.28-25.2 29.726-29.726 8.832-20.463 9.262-27.572 1.723-29.5-3.447-45.88-24.556-24.556-32.526-27.356-32.957-11.847-41.142-12.924-18.955-2.37-19.817-1.508a5.29 5.29 0 0 0-.862 5.17c.862 1.723 8.82 5.477 11.314 6.87s10.56 5.337 13.4 7.774 4.583 4.235 4.583 4.235-17.578-8.354-19.145-9.456-8.064-4.525-9.572-4.815-1.566 1.914.7 2.9 21.93 17.868 27.557 24.424 13.692 18.333 15.954 23.5a28.33 28.33 0 0 1 2.437 9.166s-5.337-9.688-9.166-15.026-13.053-16.418-19.087-21.988-18.4-17.52-18.4-17.52 2.495 6.962 3.887 9.514 4.293 8.586 5.685 9.688 3.075.928 4.177 2.32 2.495 5.22 2.843 8.818 5.22 13.17 5.22 13.17l16.824 34.4-22.396-41.363s-5.22 10.965-5.5 13.053 1.508 6.73 1.74 7.3 11.14 24.018 11.14 24.018-7.948-8.818-11.14-16.186-3.655-9.572-4.35-10.2-6.034 2.96-6.788 3.423-1.334 2.843-.87 3.77 2.186 10.7 2.186 10.7zm-.215-94.08s27.963 3.365 43.047 8.3 26.63 10.965 28.485 11.313a8.94 8.94 0 0 0 5.337-1.1c.812-.58 18.45-12.6 22.626-19.32s7.9-19.2 8.876-29.47.232-31.212-1.16-33.242-12.705-8.644-18.855-11.14-19.2-7.078-26.223-7.194-15.432-.406-26.048 3.423-25.584 13.4-28.37 17.52a43.61 43.61 0 0 0-6.208 16.476c-1.044 6.266-6.44 18.1-8.818 22.22s-8.006 10.5-7.9 11.6 7.716 7.426 8.992 7.774 8.18-2.32 10.153-3.017 16.36-6.15 16.36-6.15a15.9 15.9 0 0 1-3.655 3.655c-2.1 1.4-16.65 8.35-16.65 8.35zm-30.095-13.644v-34.806l1.177-5.883c.197-.6 1.57 5.883 1.57 6.47s.588 33.63.588 33.63 1.08 2.255 4.118 1.177 4.9-4.608 6.177-6.96 11.177-19.12 12.648-27.06 3.137-12.354 6.177-16.275 19.315-17.452 28.727-20c2.353-1.57 2.94-1.373 3.04-5.392s.294-11.08-.588-14.118-4.314-14.413-8.628-20.687-11.275-15.883-26.668-23.14-26.57-7.746-33.04-6.47-26.57 10.5-35.688 19.6-14.707 17.06-17.648 27.06-.686 22.06-.686 22.06.882.882 6.667 2.45 20.3 12.256 25.688 19.315 5.294 19.02 8.726 26.374 11.864 20.982 13.334 22.06 2.843 1.373 3.432 1.177a1.93 1.93 0 0 0 .88-.591zm-13.004 5.77s3.148-.5 1.988-4.474-9.942-14.084-13.753-25.35-3.314-17.73-6.462-21.706-10.77-11.1-21.2-16.072-11.267-2.65-20.215-4.805-9.6-1.988-16.735-1.657-27.67 8.12-34.3 12.26-7.125 4.474-8.782 8.782-.663 30.82 0 36.95 5.137 22.866 9.776 26.346c4.308 4.805 4.474 5.137 7.456 5.8s4.64.166 8.12-1.657 13.587-5.965 29.494-7.3 33.967-1.988 46.395 0 9.6 1.16 9.6 1.16-15.575-9.6-21.706-18.06l-4.64-4.474s13.256 6.628 18.227 9.776 10.936 8.12 11.6 8.12 5.137-3.646 5.137-3.646zm-68.1 14.002c1.326.58 29.162-5.385 50.37-1.077 4.142.828 7.125 1.16 7.622 2.154s1.5 1.823-1.657 2.983-44.738 22.038-47.886 25.186c-.277.772-.885 1.38-1.657 1.657l49.543-23.363c2.486-.663 3.645-.5-8.948 9.445s-31.482 29.328-31.482 29.328l29.328-22.535c5.8-4.635 14.58-12.427 14.58-12.427s.663 1.823-8.12 12.427-57 62.136-56.5 63.627 10.273-9.776 16.238-15.575l28-28s-.166 8.948 0 10.936.828 3.645 0 6.3a41.92 41.92 0 0 1-2.485 5.8s2.817-2.65 3.8-3.314 2.32.5 3.48 3.314 2.817 1.16 0 9.113-7.3 17.73-7.3 17.73 8.285-9.6 10.44-15.4.5-5.965 2.983-6.462 17.9 6.462 17.9 6.462-7.788 28.665-13.587 33.636-17.73 21.872-31.813 22.7c-13.753 2.65-15.575 4.142-22.037 4.142s-21.375 1.5-30.322-6.96-26.345-44.075-26.18-52.36 4.805-38.938 8.616-44.406 6.3-16.735 19.718-26.677a82.84 82.84 0 0 1 27.334-8.374zm86.594 21.2s6.667-5.1 6.57-7.157-.882-7.55-.98-9.118-.294-2.157 0-2.255 1.765 1.373 1.96 2.255.392 5.687.392 7.157-.784 3.922 0 3.53 5-1.765 5.6-3.53 3.04-6.57.98-12.942-10.295-10.5-15.1-11.177-18.825.882-19.9 10.5-.686 10.393 1.275 12.06 2.647 1.863 2.843 1.57 2.647-8.138 3.235-8.726.294 2.157 0 3.922-.784 6.275-.784 7.353 1.863 2.745 3.824 3.922 4.8 3.235 5.6 3.235a7.43 7.43 0 0 0 2.55 0 15.32 15.32 0 0 1 1.958-.589z" fill="#fff"/><path d="M1608.025 195.33s-1.1 6.034 0 7.832 3.655 1.392 4.177 1.218 2.437-1.8 2.437-3.133 0-3.655-.928-4.4-3.365-2.727-4.64-2.553-1.045 1.045-1.045 1.045zm-2.38-.406s.232 8.354-.58 8.992-2.553 1.044-3.25.638-3.075-1.218-3.075-2.96a6.37 6.37 0 0 1 2.089-4.815c1.392-1.16 2.67-2.03 3.307-1.856a3.96 3.96 0 0 0 1.508 0z" fill="#e20c78"/><path d="M1576.942 215.396l-3.922 4.9c-.687.586 4.02.294 4.5 0s1.373-2.843.686-3.726a4.29 4.29 0 0 0-1.274-1.174zm59.708 4.412a18.95 18.95 0 0 0 0 4.314l2.745-.686zm-38.433-.688c.882.2 11.96 1.373 15.98 2.353s3.922.98 3.628 0-1.57-5.392-2.745-6.275a3.52 3.52 0 0 0-4.412 0c-1.667 1.177-5.687.784-8.53 0s-3.432-.882-3.922 0-1.275 2.157-.882 2.843a4.1 4.1 0 0 0 .882 1.079zm24.217-3.724c.588 1.765 2.55 7.353.5 9.9s-.882 4.608-10 2.255a82.45 82.45 0 0 0-18.923-2.255c-1.47-.1-4.118-1.57-4.314-3.137s.784-6.177 1.96-8.432 2.353-3.334 1.57-4.706-3.53-3.137-4.9-2.94-3.04 2.94-3.628 5.2-1.373 7.746.588 11.373 5.2 5.785 8.726 7.55 5.883 2.55 5.883 2.843.98 1.863-4.5-.588-10.393-4.9-14.118-5.294-7.942-.784-10 1.373-3.432 9.02-2.45 13.334 2.157 8.628 7.157 12.648 7.45 3.53 8.726 3.432c1.982.063 3.953.326 5.883.784a34.6 34.6 0 0 0 4.8 1.569 13.45 13.45 0 0 1 3.628 1.667c.882.5 3.824.294 5 0s3.236-1.863 3.824-1.667a6.09 6.09 0 0 0 3.53 0c1.177-.5.392-.588 1.57-1.57s3.432-.588 4.9-1.275 2.06-2.55 5.6-2.157 4.02 2.647 6.47 2.157 6.57-3.726 7.353-5.2 5.785-7.746 5.785-13.138.588-7.255-1.667-8.922-6.863.392-9.118 1.47c-4.388 1.696-9.026 2.656-13.726 2.843-4.118-.1-5.5 0-5.6-.588s4.02-1.667 6.47-2.255 5.5-1.57 6.96-3.137 4.8-6.57 4.608-10.2-.588-7.647-3.137-10.2-5.1 0-5.785.882a5.62 5.62 0 0 0-.98 4.314 3.11 3.11 0 0 0 1.374 2.067z" fill="#fff"/></svg>