<svg xmlns="http://www.w3.org/2000/svg" width="199.57" height="200.265" fill="#fcd116"><circle cx="100.016" cy="99.852" r="48"/><path d="M176.97 121.638l-52.14-14.773.055-3.14 59.678 11.766zm-.33-42.753l-52.5 12.76-.053 3.1 59.927-9.543zm11.673 10.575l-55.495 6.46-.136 7.987 55.258 7.45 10.75-11.06zm-99.84-78.9l7.4 55.37h7.987l6.508-55.37L99.128 0zm32.696 11.736l-13.86 52.4h-3.14l10.723-59.874zm-42.74.1l13.65 52.28h3.1L84.6 14.938zm91.127 38.476L122.7 88.125l-2.22-2.22L170.4 51.15zM155.38 27.6l-33.16 44.953 5.743 5.55 43.16-35.287-.744-15.404zm-15.9 2.82l-28.926 45.636 2.107 2.26 36.495-48.47zm-.4 139.233l-26.444-47.3 2.257-2.182 33.903 50.502zm30.53-30.007l-46.148-28.103-2.222 2.148 49.116 35.62zm.777 15.728l-43.802-34.667-5.743 5.55 33.802 44.333 15.42-.22zm-92.082 21.603l14.752-52.153 3.14.053-11.74 59.692zm42.807.37l-12.76-52.5-3.1-.053 9.543 59.927zm-10.574 11.672l-6.46-55.495-7.987-.136-7.45 55.258 11.06 10.75zm-80.53-48.792l46.846-27.243 2.22 2.22-49.92 34.755zm30.53 30.006l27.316-46.618-2.185-2.185-34.78 49.714zm-15.712 1.043l33.92-44.384-5.648-5.648-43.754 34.55.482 15.415zM22.6 78.088L74.74 92.86 74.684 96 15.006 84.233zm-.378 42.805l52.5-12.735.054-3.1-59.922 9.515zm-11.664-10.578l55.5-6.433.14-7.986-55.247-7.473L.186 99.478zm49.424-80.517l27.243 46.846-2.22 2.22-34.755-49.92zM29.977 60.326l46.618 27.316 2.185-2.185-49.714-34.78zm-1.043-15.71l44.384 33.92 5.648-5.648-34.55-43.754L29 29.615z"/></svg>